<svg width="540" height="540" viewBox="0 0 540 540" fill="none" xmlns="http://www.w3.org/2000/svg">
<path d="M102.5 173.58C102.5 156.368 116.502 142.5 133.661 142.5H316.339C333.547 142.5 347.5 156.417 347.5 173.58V240H332.5V173.58C332.5 164.736 325.297 157.5 316.339 157.5H133.661C124.723 157.5 117.5 164.715 117.5 173.58V341.937L133.899 325.594C135.305 324.193 137.209 323.407 139.194 323.407H272.5V338.407H142.293L115.294 365.312C113.147 367.452 109.923 368.089 107.124 366.927C104.325 365.764 102.5 363.031 102.5 360V173.58Z" fill="#1F1F1F"/>
<path fill-rule="evenodd" clip-rule="evenodd" d="M290 217.5H160V202.5H290V217.5Z" fill="white"/>
<path fill-rule="evenodd" clip-rule="evenodd" d="M230 252.5H160V237.5H230V252.5Z" fill="white"/>
<path fill-rule="evenodd" clip-rule="evenodd" d="M230 287.5H160V272.5H230V287.5Z" fill="white"/>
<path d="M294.396 240H395.604C409.058 240 420 250.263 420 262.956V380L393.954 355.491H294.396C280.942 355.491 270 345.228 270 332.534V262.956C270 250.297 280.906 240 294.396 240Z" fill="#06C755"/>
<path fill-rule="evenodd" clip-rule="evenodd" d="M294.396 247.5C284.62 247.5 277.5 254.855 277.5 262.956V332.534C277.5 340.656 284.641 347.991 294.396 347.991H393.954C395.864 347.991 397.702 348.72 399.093 350.029L412.5 362.644V262.956C412.5 254.835 405.359 247.5 395.604 247.5H294.396ZM294.396 232.5C277.193 232.5 262.5 245.738 262.5 262.956V332.534C262.5 349.8 277.244 362.991 294.396 362.991H390.98L414.86 385.462C417.039 387.512 420.229 388.072 422.975 386.885C425.722 385.698 427.5 382.992 427.5 380V262.956C427.5 245.691 412.756 232.5 395.604 232.5H294.396Z" fill="#1F1F1F"/>
<path d="M393.738 287.601C394.49 287.601 395.064 287 395.064 286.292V281.377C395.064 280.634 394.454 280.068 393.738 280.068H374.065C373.313 280.068 372.739 280.67 372.739 281.377V311.506C372.739 312.249 373.348 312.85 374.065 312.85H393.738C394.49 312.85 395.064 312.249 395.064 311.542V306.626C395.064 305.883 394.454 305.318 393.738 305.318H380.372V300.225H393.738C394.49 300.225 395.064 299.624 395.064 298.917V294.001C395.064 293.259 394.454 292.693 393.738 292.693H380.372V287.601H393.738Z" fill="white"/>
<path d="M320.998 305.318H307.633V281.377C307.633 280.634 307.023 280.068 306.307 280.068H301.326C300.573 280.068 300 280.67 300 281.377V311.506C300 312.249 300.609 312.85 301.326 312.85H320.998C321.751 312.85 322.324 312.249 322.324 311.542V306.626C322.324 305.883 321.715 305.318 320.998 305.318Z" fill="white"/>
<path d="M332.859 280.068H327.879C327.146 280.068 326.553 280.654 326.553 281.377V311.542C326.553 312.264 327.146 312.85 327.879 312.85H332.859C333.592 312.85 334.185 312.264 334.185 311.542V281.377C334.185 280.654 333.592 280.068 332.859 280.068Z" fill="white"/>
<path d="M366.649 280.071H361.669C360.916 280.071 360.343 280.672 360.343 281.379V299.273L346.368 280.637C346.368 280.637 346.296 280.53 346.26 280.495L346.189 280.389L346.117 280.318H346.081L346.009 280.248H345.973L345.902 280.177H345.866L345.794 280.106H345.687V280.035H340.383C339.631 280 339.058 280.601 339.058 281.308V311.438C339.058 312.18 339.667 312.746 340.383 312.746H345.364C346.117 312.746 346.69 312.145 346.69 311.438V293.544L360.665 312.18C360.665 312.18 360.88 312.428 361.024 312.499L361.095 312.569H361.203L361.274 312.64H361.418C361.418 312.64 361.633 312.746 361.776 312.746H366.721C367.474 312.746 368.047 312.145 368.047 311.438V281.308C368.047 280.566 367.438 280 366.721 280L366.649 280.071Z" fill="white"/>
<rect x="416" y="88" width="74" height="74" rx="30" fill="#8DE386"/>
<path d="M452.574 106.347C447.776 106.557 444.206 110.308 444.005 115.413L444.002 115.548L443.93 115.676C443.59 116.323 443.425 117.097 443.554 117.979L443.628 118.41C443.906 119.799 444.477 120.706 445.198 121.283L445.308 121.364L445.156 121.082C445.992 122.637 446.617 123.701 447.372 124.894C447.826 125.612 447.767 126.661 447.27 127.01L438.182 132.932C437.42 133.429 436.794 134.108 436.361 134.908C435.927 135.708 435.7 136.603 435.7 137.513V143.662H470.3V137.513C470.3 135.665 469.367 133.942 467.818 132.932L458.694 126.985C458.234 126.661 458.174 125.612 458.629 124.894L458.946 124.388C459.36 123.72 459.748 123.065 460.173 122.308L460.69 121.364L460.802 121.283C461.595 120.649 462.207 119.614 462.447 117.98L462.484 117.608C462.525 116.878 462.362 116.23 462.071 115.675L461.996 115.548L462.004 115.866C462.004 110.379 458.154 106.338 453 106.338L452.574 106.347ZM453.366 108.947C456.747 109.123 459.228 111.734 459.395 115.463L459.402 115.86L459.4 116.369L459.662 116.717C459.831 116.941 459.928 117.233 459.874 117.604C459.712 118.711 459.398 119.138 459.047 119.342L458.729 119.527L458.555 119.851C457.75 121.349 457.156 122.359 456.432 123.503C455.305 125.283 455.453 127.887 457.237 129.138L466.399 135.11L466.632 135.28C467.304 135.821 467.7 136.64 467.7 137.513V141.062H438.3V137.513C438.3 136.543 438.79 135.64 439.602 135.111L448.726 129.163C450.547 127.886 450.695 125.283 449.569 123.503C448.949 122.524 448.424 121.641 447.779 120.465L447.272 119.527L446.954 119.342C446.602 119.138 446.289 118.711 446.126 117.603C446.072 117.233 446.17 116.941 446.339 116.716L446.623 116.338L446.595 115.798C446.597 111.788 449.311 108.938 453 108.938L453.366 108.947Z" fill="#2A2A2A"/>
<g filter="url(#filter0_d_594_40359)">
<rect x="277" y="116" width="123" height="46" rx="23" fill="#8DE386"/>
<path d="M402.515 118.359C399.763 119.539 393.078 121.898 388.36 121.898C387.574 125.437 387.416 133.223 393.078 131.335C398.74 129.448 401.729 121.505 402.515 118.359Z" fill="#8DE386"/>
<path d="M303.435 146.312C304.49 146.312 305.408 146.14 306.189 145.795C306.97 145.45 307.573 144.962 307.996 144.33C308.425 143.699 308.64 142.947 308.64 142.074V142.064C308.64 141.381 308.5 140.788 308.22 140.287C307.947 139.786 307.511 139.363 306.912 139.018C306.313 138.673 305.522 138.393 304.539 138.178L302.976 137.826C302.032 137.624 301.349 137.335 300.925 136.957C300.502 136.573 300.291 136.098 300.291 135.531V135.521C300.291 135.04 300.427 134.63 300.701 134.291C300.974 133.946 301.345 133.682 301.814 133.5C302.283 133.311 302.813 133.217 303.406 133.217C304.018 133.217 304.552 133.311 305.007 133.5C305.463 133.682 305.828 133.936 306.101 134.262C306.375 134.587 306.544 134.968 306.609 135.404L306.629 135.531H308.386L308.377 135.395C308.331 134.672 308.093 134.027 307.664 133.461C307.24 132.888 306.668 132.436 305.945 132.104C305.222 131.765 304.392 131.596 303.455 131.596C302.491 131.596 301.635 131.765 300.886 132.104C300.144 132.442 299.561 132.911 299.138 133.51C298.715 134.102 298.5 134.789 298.494 135.57V135.58C298.494 136.602 298.816 137.439 299.461 138.09C300.112 138.741 301.137 139.223 302.537 139.535L304.099 139.877C305.069 140.092 305.769 140.398 306.199 140.795C306.629 141.186 306.843 141.677 306.843 142.27V142.279C306.843 142.755 306.703 143.174 306.423 143.539C306.143 143.904 305.753 144.187 305.252 144.389C304.757 144.59 304.184 144.691 303.533 144.691C302.856 144.691 302.254 144.597 301.726 144.408C301.199 144.219 300.779 143.956 300.466 143.617C300.154 143.272 299.972 142.865 299.92 142.396L299.9 142.279H298.142L298.152 142.396C298.224 143.165 298.481 143.845 298.923 144.438C299.373 145.023 299.981 145.482 300.75 145.814C301.518 146.146 302.413 146.312 303.435 146.312ZM315.018 146.186C315.844 146.186 316.557 146.046 317.156 145.766C317.755 145.479 318.24 145.089 318.611 144.594C318.982 144.092 319.233 143.523 319.363 142.885L319.383 142.787L317.703 142.797L317.684 142.855C317.501 143.441 317.186 143.894 316.736 144.213C316.294 144.525 315.717 144.682 315.008 144.682C314.396 144.682 313.859 144.522 313.396 144.203C312.941 143.884 312.586 143.432 312.332 142.846C312.078 142.26 311.951 141.563 311.951 140.756V140.746C311.951 139.958 312.075 139.275 312.322 138.695C312.576 138.116 312.931 137.67 313.387 137.357C313.842 137.038 314.383 136.879 315.008 136.879C315.763 136.879 316.365 137.064 316.814 137.436C317.27 137.8 317.56 138.243 317.684 138.764L317.703 138.803H319.383L319.373 138.734C319.275 138.122 319.044 137.562 318.68 137.055C318.315 136.547 317.824 136.14 317.205 135.834C316.593 135.528 315.861 135.375 315.008 135.375C314.031 135.375 313.185 135.596 312.469 136.039C311.753 136.482 311.196 137.104 310.799 137.904C310.408 138.705 310.213 139.649 310.213 140.736V140.756C310.213 141.863 310.408 142.823 310.799 143.637C311.196 144.444 311.753 145.072 312.469 145.521C313.191 145.964 314.041 146.186 315.018 146.186ZM321.346 146H323.045V139.838C323.045 139.232 323.156 138.708 323.377 138.266C323.605 137.823 323.921 137.481 324.325 137.24C324.735 136.999 325.213 136.879 325.76 136.879C326.587 136.879 327.205 137.117 327.616 137.592C328.032 138.061 328.241 138.767 328.241 139.711V146H329.94V139.32C329.94 138.493 329.793 137.787 329.5 137.201C329.207 136.609 328.788 136.156 328.241 135.844C327.694 135.531 327.036 135.375 326.268 135.375C325.493 135.375 324.852 135.531 324.344 135.844C323.836 136.15 323.446 136.586 323.172 137.152H323.045V131.439H321.346V146ZM336.669 146.186C337.268 146.186 337.815 146.107 338.309 145.951C338.804 145.795 339.234 145.58 339.598 145.307C339.963 145.033 340.263 144.727 340.497 144.389C340.731 144.044 340.891 143.686 340.975 143.314L340.995 143.236H339.305L339.266 143.324C339.175 143.552 339.016 143.77 338.788 143.979C338.56 144.18 338.27 144.346 337.919 144.477C337.574 144.607 337.17 144.672 336.708 144.672C336.076 144.672 335.526 144.532 335.057 144.252C334.595 143.972 334.237 143.572 333.983 143.051C333.736 142.523 333.612 141.889 333.612 141.146V140.482C333.612 139.701 333.739 139.044 333.993 138.51C334.253 137.976 334.605 137.572 335.048 137.299C335.49 137.025 335.992 136.889 336.552 136.889C337.111 136.889 337.606 137.019 338.036 137.279C338.466 137.54 338.804 137.934 339.052 138.461C339.299 138.988 339.423 139.662 339.423 140.482V141.146L340.263 139.906H332.743V141.264H341.122V140.609C341.122 139.568 340.94 138.656 340.575 137.875C340.21 137.087 339.686 136.475 339.003 136.039C338.319 135.596 337.505 135.375 336.561 135.375C335.617 135.375 334.79 135.606 334.081 136.068C333.378 136.524 332.834 137.159 332.45 137.973C332.066 138.786 331.874 139.73 331.874 140.805V140.814C331.874 141.908 332.066 142.859 332.45 143.666C332.834 144.467 333.384 145.089 334.1 145.531C334.817 145.967 335.673 146.186 336.669 146.186ZM347.021 146.186C347.509 146.186 347.958 146.111 348.368 145.961C348.785 145.811 349.156 145.596 349.482 145.316C349.807 145.036 350.074 144.701 350.282 144.311H350.419V146H352.118V131.439H350.419V137.23H350.282C350.094 136.846 349.833 136.518 349.501 136.244C349.169 135.971 348.792 135.759 348.368 135.609C347.945 135.453 347.493 135.375 347.011 135.375C346.132 135.375 345.364 135.6 344.706 136.049C344.049 136.492 343.538 137.117 343.173 137.924C342.808 138.731 342.626 139.678 342.626 140.766V140.785C342.626 141.872 342.808 142.823 343.173 143.637C343.538 144.444 344.049 145.072 344.706 145.521C345.364 145.964 346.135 146.186 347.021 146.186ZM347.392 144.682C346.767 144.682 346.226 144.525 345.771 144.213C345.315 143.9 344.967 143.454 344.726 142.875C344.485 142.289 344.364 141.592 344.364 140.785V140.766C344.364 139.958 344.485 139.265 344.726 138.686C344.967 138.106 345.315 137.66 345.771 137.348C346.226 137.035 346.767 136.879 347.392 136.879C348.017 136.879 348.557 137.038 349.013 137.357C349.469 137.67 349.82 138.119 350.068 138.705C350.321 139.285 350.448 139.971 350.448 140.766V140.785C350.448 141.579 350.325 142.27 350.077 142.855C349.83 143.441 349.475 143.894 349.013 144.213C348.557 144.525 348.017 144.682 347.392 144.682ZM358.271 146.186C358.785 146.186 359.244 146.117 359.648 145.98C360.058 145.844 360.41 145.645 360.703 145.385C360.996 145.124 361.227 144.815 361.396 144.457H361.523V146H363.222V135.561H361.523V141.732C361.523 142.188 361.461 142.598 361.338 142.963C361.22 143.327 361.041 143.637 360.8 143.891C360.56 144.145 360.267 144.34 359.921 144.477C359.576 144.613 359.179 144.682 358.73 144.682C357.903 144.682 357.304 144.454 356.933 143.998C356.562 143.542 356.377 142.855 356.377 141.938V135.561H354.677V142.328C354.677 143.135 354.811 143.829 355.078 144.408C355.351 144.988 355.755 145.43 356.289 145.736C356.829 146.036 357.49 146.186 358.271 146.186ZM365.859 146H367.559V131.439H365.859V146ZM374.463 146.186C375.062 146.186 375.609 146.107 376.104 145.951C376.599 145.795 377.028 145.58 377.393 145.307C377.758 145.033 378.057 144.727 378.291 144.389C378.526 144.044 378.685 143.686 378.77 143.314L378.789 143.236H377.1L377.061 143.324C376.97 143.552 376.81 143.77 376.582 143.979C376.355 144.18 376.065 144.346 375.713 144.477C375.368 144.607 374.965 144.672 374.502 144.672C373.871 144.672 373.321 144.532 372.852 144.252C372.39 143.972 372.032 143.572 371.778 143.051C371.53 142.523 371.407 141.889 371.407 141.146V140.482C371.407 139.701 371.534 139.044 371.787 138.51C372.048 137.976 372.399 137.572 372.842 137.299C373.285 137.025 373.786 136.889 374.346 136.889C374.906 136.889 375.401 137.019 375.83 137.279C376.26 137.54 376.599 137.934 376.846 138.461C377.093 138.988 377.217 139.662 377.217 140.482V141.146L378.057 139.906H370.537V141.264H378.916V140.609C378.916 139.568 378.734 138.656 378.37 137.875C378.005 137.087 377.481 136.475 376.797 136.039C376.114 135.596 375.3 135.375 374.356 135.375C373.412 135.375 372.585 135.606 371.875 136.068C371.172 136.524 370.629 137.159 370.245 137.973C369.86 138.786 369.668 139.73 369.668 140.805V140.814C369.668 141.908 369.86 142.859 370.245 143.666C370.629 144.467 371.179 145.089 371.895 145.531C372.611 145.967 373.467 146.186 374.463 146.186Z" fill="black"/>
</g>
<g filter="url(#filter1_d_594_40359)">
<rect x="137" y="387" width="211" height="46" rx="23" fill="white"/>
<path d="M162.379 417H164.137V404.49H168.659V402.908H157.868V404.49H162.379V417ZM172.731 417.186C173.714 417.186 174.564 416.967 175.28 416.531C176.003 416.095 176.559 415.473 176.95 414.666C177.347 413.859 177.546 412.898 177.546 411.785V411.766C177.546 410.652 177.347 409.692 176.95 408.885C176.559 408.077 176.003 407.459 175.28 407.029C174.564 406.593 173.711 406.375 172.721 406.375C171.745 406.375 170.895 406.593 170.173 407.029C169.45 407.459 168.89 408.077 168.493 408.885C168.102 409.692 167.907 410.652 167.907 411.766V411.785C167.907 412.898 168.102 413.859 168.493 414.666C168.89 415.473 169.45 416.095 170.173 416.531C170.895 416.967 171.748 417.186 172.731 417.186ZM172.731 415.682C172.08 415.682 171.524 415.529 171.061 415.223C170.606 414.91 170.254 414.464 170.007 413.885C169.766 413.305 169.645 412.605 169.645 411.785V411.766C169.645 410.945 169.766 410.245 170.007 409.666C170.254 409.087 170.606 408.644 171.061 408.338C171.524 408.032 172.077 407.879 172.721 407.879C173.373 407.879 173.926 408.032 174.382 408.338C174.844 408.644 175.195 409.087 175.436 409.666C175.684 410.245 175.807 410.945 175.807 411.766V411.785C175.807 412.605 175.684 413.305 175.436 413.885C175.195 414.464 174.844 414.91 174.382 415.223C173.926 415.529 173.376 415.682 172.731 415.682ZM183.445 417.186C183.933 417.186 184.382 417.111 184.792 416.961C185.209 416.811 185.58 416.596 185.905 416.316C186.231 416.036 186.498 415.701 186.706 415.311H186.843V417H188.542V402.439H186.843V408.23H186.706C186.517 407.846 186.257 407.518 185.925 407.244C185.593 406.971 185.215 406.759 184.792 406.609C184.369 406.453 183.917 406.375 183.435 406.375C182.556 406.375 181.788 406.6 181.13 407.049C180.473 407.492 179.961 408.117 179.597 408.924C179.232 409.731 179.05 410.678 179.05 411.766V411.785C179.05 412.872 179.232 413.823 179.597 414.637C179.961 415.444 180.473 416.072 181.13 416.521C181.788 416.964 182.559 417.186 183.445 417.186ZM183.816 415.682C183.191 415.682 182.65 415.525 182.195 415.213C181.739 414.9 181.39 414.454 181.15 413.875C180.909 413.289 180.788 412.592 180.788 411.785V411.766C180.788 410.958 180.909 410.265 181.15 409.686C181.39 409.106 181.739 408.66 182.195 408.348C182.65 408.035 183.191 407.879 183.816 407.879C184.441 407.879 184.981 408.038 185.437 408.357C185.892 408.67 186.244 409.119 186.491 409.705C186.745 410.285 186.872 410.971 186.872 411.766V411.785C186.872 412.579 186.749 413.27 186.501 413.855C186.254 414.441 185.899 414.894 185.437 415.213C184.981 415.525 184.441 415.682 183.816 415.682ZM194.089 417.186C194.565 417.186 195.001 417.117 195.398 416.98C195.795 416.844 196.153 416.645 196.472 416.385C196.791 416.118 197.058 415.799 197.273 415.428H197.4V417H199.099V409.832C199.099 409.116 198.943 408.501 198.63 407.986C198.324 407.465 197.872 407.068 197.273 406.795C196.681 406.515 195.964 406.375 195.125 406.375C194.363 406.375 193.689 406.495 193.103 406.736C192.517 406.977 192.045 407.309 191.687 407.732C191.329 408.156 191.111 408.644 191.033 409.197L191.023 409.266H192.703L192.712 409.227C192.843 408.803 193.11 408.475 193.513 408.24C193.917 407.999 194.438 407.879 195.076 407.879C195.844 407.879 196.423 408.051 196.814 408.396C197.205 408.742 197.4 409.236 197.4 409.881V413.094C197.4 413.589 197.273 414.035 197.019 414.432C196.765 414.829 196.414 415.141 195.964 415.369C195.522 415.597 195.017 415.711 194.451 415.711C193.839 415.711 193.334 415.564 192.937 415.271C192.546 414.979 192.351 414.572 192.351 414.051V414.031C192.351 413.517 192.533 413.117 192.898 412.83C193.269 412.544 193.842 412.378 194.617 412.332L198.25 412.107V410.76L194.412 410.984C193.604 411.03 192.918 411.18 192.351 411.434C191.785 411.688 191.352 412.036 191.052 412.479C190.759 412.915 190.613 413.442 190.613 414.061V414.08C190.613 414.712 190.763 415.262 191.062 415.73C191.368 416.193 191.782 416.551 192.302 416.805C192.83 417.059 193.425 417.186 194.089 417.186ZM202.205 420.623C202.83 420.623 203.354 420.532 203.777 420.35C204.207 420.167 204.575 419.858 204.881 419.422C205.193 418.992 205.493 418.4 205.779 417.645L209.852 406.561H208.064L204.9 416.082L205.506 415.174H204.773L205.369 416.082L202.205 406.561H200.389L204.256 417.01L204.051 417.625C203.862 418.224 203.611 418.637 203.299 418.865C202.986 419.1 202.583 419.217 202.088 419.217C201.971 419.217 201.854 419.214 201.736 419.207C201.619 419.201 201.515 419.188 201.424 419.168V420.564C201.535 420.584 201.661 420.597 201.805 420.604C201.948 420.617 202.081 420.623 202.205 420.623ZM211.424 408.279H212.674L214.178 402.908H212.274L211.424 408.279ZM218.944 417.186C219.738 417.186 220.448 417.055 221.073 416.795C221.698 416.528 222.193 416.16 222.557 415.691C222.922 415.216 223.104 414.669 223.104 414.051V414.031C223.104 413.283 222.87 412.687 222.401 412.244C221.932 411.795 221.197 411.45 220.194 411.209L218.573 410.818C218.176 410.721 217.85 410.604 217.596 410.467C217.343 410.33 217.154 410.171 217.03 409.988C216.913 409.799 216.854 409.591 216.854 409.363V409.344C216.854 409.031 216.945 408.761 217.128 408.533C217.31 408.299 217.561 408.117 217.88 407.986C218.199 407.856 218.567 407.791 218.983 407.791C219.615 407.791 220.126 407.928 220.516 408.201C220.907 408.468 221.154 408.816 221.259 409.246V409.266H222.919L222.909 409.236C222.844 408.663 222.639 408.162 222.294 407.732C221.955 407.303 221.503 406.971 220.936 406.736C220.376 406.495 219.725 406.375 218.983 406.375C218.248 406.375 217.587 406.508 217.001 406.775C216.415 407.036 215.953 407.397 215.614 407.859C215.282 408.315 215.116 408.836 215.116 409.422V409.432C215.116 409.926 215.217 410.359 215.419 410.73C215.621 411.095 215.933 411.404 216.356 411.658C216.779 411.906 217.317 412.107 217.968 412.264L219.598 412.654C220.23 412.811 220.682 413.012 220.956 413.26C221.229 413.501 221.366 413.8 221.366 414.158V414.178C221.366 414.49 221.265 414.767 221.063 415.008C220.861 415.249 220.585 415.438 220.233 415.574C219.882 415.704 219.468 415.77 218.993 415.77C218.316 415.77 217.772 415.636 217.362 415.369C216.958 415.096 216.688 414.731 216.552 414.275V414.256H214.823V414.275C214.888 414.861 215.096 415.372 215.448 415.809C215.806 416.245 216.281 416.583 216.874 416.824C217.473 417.065 218.163 417.186 218.944 417.186ZM233.613 417.186C234.407 417.186 235.117 417.055 235.742 416.795C236.367 416.528 236.862 416.16 237.226 415.691C237.591 415.216 237.773 414.669 237.773 414.051V414.031C237.773 413.283 237.539 412.687 237.07 412.244C236.601 411.795 235.865 411.45 234.863 411.209L233.242 410.818C232.845 410.721 232.519 410.604 232.265 410.467C232.011 410.33 231.823 410.171 231.699 409.988C231.582 409.799 231.523 409.591 231.523 409.363V409.344C231.523 409.031 231.614 408.761 231.796 408.533C231.979 408.299 232.229 408.117 232.548 407.986C232.867 407.856 233.235 407.791 233.652 407.791C234.283 407.791 234.795 407.928 235.185 408.201C235.576 408.468 235.823 408.816 235.927 409.246V409.266H237.588L237.578 409.236C237.513 408.663 237.308 408.162 236.963 407.732C236.624 407.303 236.171 406.971 235.605 406.736C235.045 406.495 234.394 406.375 233.652 406.375C232.916 406.375 232.255 406.508 231.67 406.775C231.084 407.036 230.621 407.397 230.283 407.859C229.951 408.315 229.785 408.836 229.785 409.422V409.432C229.785 409.926 229.886 410.359 230.088 410.73C230.289 411.095 230.602 411.404 231.025 411.658C231.448 411.906 231.985 412.107 232.636 412.264L234.267 412.654C234.899 412.811 235.351 413.012 235.625 413.26C235.898 413.501 236.035 413.8 236.035 414.158V414.178C236.035 414.49 235.934 414.767 235.732 415.008C235.53 415.249 235.254 415.438 234.902 415.574C234.55 415.704 234.137 415.77 233.662 415.77C232.985 415.77 232.441 415.636 232.031 415.369C231.627 415.096 231.357 414.731 231.22 414.275V414.256H229.492V414.275C229.557 414.861 229.765 415.372 230.117 415.809C230.475 416.245 230.95 416.583 231.543 416.824C232.142 417.065 232.832 417.186 233.613 417.186ZM244.082 417.186C244.909 417.186 245.622 417.046 246.221 416.766C246.82 416.479 247.305 416.089 247.676 415.594C248.047 415.092 248.298 414.523 248.428 413.885L248.447 413.787L246.768 413.797L246.748 413.855C246.566 414.441 246.25 414.894 245.801 415.213C245.358 415.525 244.782 415.682 244.072 415.682C243.46 415.682 242.923 415.522 242.461 415.203C242.005 414.884 241.65 414.432 241.396 413.846C241.143 413.26 241.016 412.563 241.016 411.756V411.746C241.016 410.958 241.139 410.275 241.387 409.695C241.641 409.116 241.995 408.67 242.451 408.357C242.907 408.038 243.447 407.879 244.072 407.879C244.827 407.879 245.43 408.064 245.879 408.436C246.335 408.8 246.624 409.243 246.748 409.764L246.768 409.803H248.447L248.438 409.734C248.34 409.122 248.109 408.562 247.744 408.055C247.38 407.547 246.888 407.14 246.27 406.834C245.658 406.528 244.925 406.375 244.072 406.375C243.096 406.375 242.249 406.596 241.533 407.039C240.817 407.482 240.26 408.104 239.863 408.904C239.473 409.705 239.277 410.649 239.277 411.736V411.756C239.277 412.863 239.473 413.823 239.863 414.637C240.26 415.444 240.817 416.072 241.533 416.521C242.256 416.964 243.105 417.186 244.082 417.186ZM250.411 417H252.11V410.838C252.11 410.232 252.22 409.708 252.442 409.266C252.67 408.823 252.985 408.481 253.389 408.24C253.799 407.999 254.278 407.879 254.825 407.879C255.651 407.879 256.27 408.117 256.68 408.592C257.097 409.061 257.305 409.767 257.305 410.711V417H259.004V410.32C259.004 409.493 258.858 408.787 258.565 408.201C258.272 407.609 257.852 407.156 257.305 406.844C256.758 406.531 256.101 406.375 255.332 406.375C254.558 406.375 253.916 406.531 253.409 406.844C252.901 407.15 252.51 407.586 252.237 408.152H252.11V402.439H250.411V417ZM265.733 417.186C266.332 417.186 266.879 417.107 267.374 416.951C267.869 416.795 268.298 416.58 268.663 416.307C269.027 416.033 269.327 415.727 269.561 415.389C269.796 415.044 269.955 414.686 270.04 414.314L270.059 414.236H268.37L268.331 414.324C268.24 414.552 268.08 414.77 267.852 414.979C267.624 415.18 267.335 415.346 266.983 415.477C266.638 415.607 266.235 415.672 265.772 415.672C265.141 415.672 264.591 415.532 264.122 415.252C263.66 414.972 263.302 414.572 263.048 414.051C262.8 413.523 262.677 412.889 262.677 412.146V411.482C262.677 410.701 262.804 410.044 263.057 409.51C263.318 408.976 263.669 408.572 264.112 408.299C264.555 408.025 265.056 407.889 265.616 407.889C266.176 407.889 266.671 408.019 267.1 408.279C267.53 408.54 267.869 408.934 268.116 409.461C268.363 409.988 268.487 410.662 268.487 411.482V412.146L269.327 410.906H261.807V412.264H270.186V411.609C270.186 410.568 270.004 409.656 269.639 408.875C269.275 408.087 268.751 407.475 268.067 407.039C267.384 406.596 266.57 406.375 265.626 406.375C264.682 406.375 263.855 406.606 263.145 407.068C262.442 407.524 261.899 408.159 261.514 408.973C261.13 409.786 260.938 410.73 260.938 411.805V411.814C260.938 412.908 261.13 413.859 261.514 414.666C261.899 415.467 262.449 416.089 263.165 416.531C263.881 416.967 264.737 417.186 265.733 417.186ZM276.085 417.186C276.573 417.186 277.023 417.111 277.433 416.961C277.849 416.811 278.221 416.596 278.546 416.316C278.872 416.036 279.139 415.701 279.347 415.311H279.484V417H281.183V402.439H279.484V408.23H279.347C279.158 407.846 278.898 407.518 278.566 407.244C278.234 406.971 277.856 406.759 277.433 406.609C277.01 406.453 276.557 406.375 276.075 406.375C275.196 406.375 274.428 406.6 273.771 407.049C273.113 407.492 272.602 408.117 272.237 408.924C271.873 409.731 271.691 410.678 271.691 411.766V411.785C271.691 412.872 271.873 413.823 272.237 414.637C272.602 415.444 273.113 416.072 273.771 416.521C274.428 416.964 275.2 417.186 276.085 417.186ZM276.456 415.682C275.831 415.682 275.291 415.525 274.835 415.213C274.379 414.9 274.031 414.454 273.79 413.875C273.549 413.289 273.429 412.592 273.429 411.785V411.766C273.429 410.958 273.549 410.265 273.79 409.686C274.031 409.106 274.379 408.66 274.835 408.348C275.291 408.035 275.831 407.879 276.456 407.879C277.081 407.879 277.622 408.038 278.077 408.357C278.533 408.67 278.885 409.119 279.132 409.705C279.386 410.285 279.513 410.971 279.513 411.766V411.785C279.513 412.579 279.389 413.27 279.142 413.855C278.894 414.441 278.54 414.894 278.077 415.213C277.622 415.525 277.081 415.682 276.456 415.682ZM287.336 417.186C287.85 417.186 288.309 417.117 288.713 416.98C289.123 416.844 289.474 416.645 289.767 416.385C290.06 416.124 290.291 415.815 290.461 415.457H290.588V417H292.287V406.561H290.588V412.732C290.588 413.188 290.526 413.598 290.402 413.963C290.285 414.327 290.106 414.637 289.865 414.891C289.624 415.145 289.331 415.34 288.986 415.477C288.641 415.613 288.244 415.682 287.795 415.682C286.968 415.682 286.369 415.454 285.998 414.998C285.627 414.542 285.441 413.855 285.441 412.938V406.561H283.742V413.328C283.742 414.135 283.875 414.829 284.142 415.408C284.416 415.988 284.819 416.43 285.353 416.736C285.893 417.036 286.554 417.186 287.336 417.186ZM294.924 417H296.623V402.439H294.924V417ZM303.528 417.186C304.127 417.186 304.674 417.107 305.168 416.951C305.663 416.795 306.093 416.58 306.457 416.307C306.822 416.033 307.121 415.727 307.356 415.389C307.59 415.044 307.75 414.686 307.834 414.314L307.854 414.236H306.164L306.125 414.324C306.034 414.552 305.875 414.77 305.647 414.979C305.419 415.18 305.129 415.346 304.778 415.477C304.433 415.607 304.029 415.672 303.567 415.672C302.935 415.672 302.385 415.532 301.916 415.252C301.454 414.972 301.096 414.572 300.842 414.051C300.595 413.523 300.471 412.889 300.471 412.146V411.482C300.471 410.701 300.598 410.044 300.852 409.51C301.112 408.976 301.464 408.572 301.907 408.299C302.349 408.025 302.851 407.889 303.411 407.889C303.97 407.889 304.465 408.019 304.895 408.279C305.325 408.54 305.663 408.934 305.911 409.461C306.158 409.988 306.282 410.662 306.282 411.482V412.146L307.121 410.906H299.602V412.264H307.981V411.609C307.981 410.568 307.799 409.656 307.434 408.875C307.069 408.087 306.545 407.475 305.862 407.039C305.178 406.596 304.364 406.375 303.42 406.375C302.476 406.375 301.649 406.606 300.94 407.068C300.237 407.524 299.693 408.159 299.309 408.973C298.925 409.786 298.733 410.73 298.733 411.805V411.814C298.733 412.908 298.925 413.859 299.309 414.666C299.693 415.467 300.243 416.089 300.959 416.531C301.676 416.967 302.532 417.186 303.528 417.186ZM314.935 417H316.634V406.561H314.935V417ZM315.794 404.607C316.113 404.607 316.383 404.493 316.605 404.266C316.826 404.038 316.937 403.768 316.937 403.455C316.937 403.136 316.826 402.866 316.605 402.645C316.383 402.423 316.113 402.312 315.794 402.312C315.482 402.312 315.211 402.423 314.984 402.645C314.756 402.866 314.642 403.136 314.642 403.455C314.642 403.768 314.756 404.038 314.984 404.266C315.211 404.493 315.482 404.607 315.794 404.607ZM322.836 417.186C323.63 417.186 324.339 417.055 324.964 416.795C325.589 416.528 326.084 416.16 326.449 415.691C326.813 415.216 326.996 414.669 326.996 414.051V414.031C326.996 413.283 326.761 412.687 326.293 412.244C325.824 411.795 325.088 411.45 324.086 411.209L322.464 410.818C322.067 410.721 321.742 410.604 321.488 410.467C321.234 410.33 321.045 410.171 320.921 409.988C320.804 409.799 320.746 409.591 320.746 409.363V409.344C320.746 409.031 320.837 408.761 321.019 408.533C321.201 408.299 321.452 408.117 321.771 407.986C322.09 407.856 322.458 407.791 322.875 407.791C323.506 407.791 324.017 407.928 324.408 408.201C324.798 408.468 325.046 408.816 325.15 409.246V409.266H326.81L326.8 409.236C326.735 408.663 326.53 408.162 326.185 407.732C325.847 407.303 325.394 406.971 324.828 406.736C324.268 406.495 323.617 406.375 322.875 406.375C322.139 406.375 321.478 406.508 320.892 406.775C320.306 407.036 319.844 407.397 319.505 407.859C319.173 408.315 319.007 408.836 319.007 409.422V409.432C319.007 409.926 319.108 410.359 319.31 410.73C319.512 411.095 319.824 411.404 320.248 411.658C320.671 411.906 321.208 412.107 321.859 412.264L323.49 412.654C324.121 412.811 324.574 413.012 324.847 413.26C325.121 413.501 325.257 413.8 325.257 414.158V414.178C325.257 414.49 325.157 414.767 324.955 415.008C324.753 415.249 324.476 415.438 324.125 415.574C323.773 415.704 323.36 415.77 322.884 415.77C322.207 415.77 321.664 415.636 321.254 415.369C320.85 415.096 320.58 414.731 320.443 414.275V414.256H318.714V414.275C318.78 414.861 318.988 415.372 319.339 415.809C319.698 416.245 320.173 416.583 320.765 416.824C321.364 417.065 322.054 417.186 322.836 417.186Z" fill="black"/>
</g>
<rect x="47" y="360" width="74" height="74" rx="30" fill="white"/>
<path d="M93.1887 379.7C97.2205 379.7 100.489 382.969 100.489 387V402.135C100.489 406.167 97.2205 409.435 93.1887 409.435L75.0381 409.434L70.7585 413.739C69.6151 414.889 67.6885 414.164 67.5231 412.615L67.5117 412.399V387C67.5117 382.968 70.7799 379.7 74.8117 379.7H93.1887ZM93.1887 382.3H74.8117C72.2157 382.3 70.1117 384.404 70.1117 387L70.1101 410.702L73.9597 406.835H93.1887C95.7847 406.835 97.8887 404.731 97.8887 402.135V387C97.8887 384.404 95.7847 382.3 93.1887 382.3ZM88.1973 397.501V400.101H79.8029V397.501H88.1973ZM88.7219 389.862C89.8265 389.862 90.7219 390.758 90.7219 391.862C90.7219 392.967 89.8265 393.862 88.7219 393.862C87.6173 393.862 86.7219 392.967 86.7219 391.862C86.7219 390.758 87.6173 389.862 88.7219 389.862ZM79.2783 389.862C80.3829 389.862 81.2783 390.758 81.2783 391.862C81.2783 392.967 80.3829 393.862 79.2783 393.862C78.1737 393.862 77.2783 392.967 77.2783 391.862C77.2783 390.758 78.1737 389.862 79.2783 389.862Z" fill="#1F1F1F"/>
<defs>
<filter id="filter0_d_594_40359" x="270.556" y="110.844" width="138.404" height="58.8888" filterUnits="userSpaceOnUse" color-interpolation-filters="sRGB">
<feFlood flood-opacity="0" result="BackgroundImageFix"/>
<feColorMatrix in="SourceAlpha" type="matrix" values="0 0 0 0 0 0 0 0 0 0 0 0 0 0 0 0 0 0 127 0" result="hardAlpha"/>
<feOffset dy="1.28888"/>
<feGaussianBlur stdDeviation="3.22219"/>
<feComposite in2="hardAlpha" operator="out"/>
<feColorMatrix type="matrix" values="0 0 0 0 0 0 0 0 0 0 0 0 0 0 0 0 0 0 0.25 0"/>
<feBlend mode="normal" in2="BackgroundImageFix" result="effect1_dropShadow_594_40359"/>
<feBlend mode="normal" in="SourceGraphic" in2="effect1_dropShadow_594_40359" result="shape"/>
</filter>
<filter id="filter1_d_594_40359" x="130.318" y="381.432" width="224.364" height="59.364" filterUnits="userSpaceOnUse" color-interpolation-filters="sRGB">
<feFlood flood-opacity="0" result="BackgroundImageFix"/>
<feColorMatrix in="SourceAlpha" type="matrix" values="0 0 0 0 0 0 0 0 0 0 0 0 0 0 0 0 0 0 127 0" result="hardAlpha"/>
<feOffset dy="1.11367"/>
<feGaussianBlur stdDeviation="3.34101"/>
<feComposite in2="hardAlpha" operator="out"/>
<feColorMatrix type="matrix" values="0 0 0 0 0 0 0 0 0 0 0 0 0 0 0 0 0 0 0.3 0"/>
<feBlend mode="normal" in2="BackgroundImageFix" result="effect1_dropShadow_594_40359"/>
<feBlend mode="normal" in="SourceGraphic" in2="effect1_dropShadow_594_40359" result="shape"/>
</filter>
</defs>
</svg>
